<svg width="600" height="600" viewBox="0 0 600 600" fill="none" xmlns="http://www.w3.org/2000/svg">
<path d="M207.936 512H391.842C429.111 512 447.746 493.365 447.746 455.431V194.546C447.746 157.72 429.999 137.976 394.282 137.976H392.951C393.173 139.529 393.173 141.304 393.173 142.857V160.826C393.173 164.154 392.951 167.259 392.286 170.143H393.617C408.258 170.143 415.579 180.126 415.579 194.989V454.987C415.579 470.959 406.927 480.055 390.289 480.055H209.711C192.851 480.055 184.199 470.959 184.199 454.987V194.989C184.199 180.126 191.52 170.143 206.383 170.143H207.714C207.049 167.259 206.827 164.154 206.827 160.826V142.857C206.827 141.304 206.827 139.529 207.049 137.976H205.718C169.779 137.976 152.254 157.72 152.254 194.546V455.431C152.254 493.365 170.667 512 207.936 512ZM245.871 180.126H353.907C364.778 180.126 371.433 173.249 371.433 161.491V142.857C371.433 131.099 364.778 124.222 353.907 124.222H339.488C338.157 103.813 321.075 87.3964 300 87.3964C278.925 87.3964 261.843 103.813 260.29 124.222H245.871C235.001 124.222 228.567 131.099 228.567 142.857V161.491C228.567 173.249 235.001 180.126 245.871 180.126ZM300 140.86C291.792 140.86 284.915 133.983 284.915 125.775C284.915 117.567 291.792 110.912 300 110.912C308.208 110.912 314.863 117.567 314.863 125.775C314.863 133.983 308.208 140.86 300 140.86Z" fill="#EC803E"/>
<path d="M300 432C302.059 432 305.032 430.62 307.09 429.24C358.437 396.583 390 358.407 390 319.425C390 286.998 367.814 264 339.339 264C321.385 264 308.348 273.889 300 288.838C291.766 274.004 278.615 264 260.661 264C232.186 264 210 286.998 210 319.425C210 358.407 241.563 396.583 292.91 429.24C294.968 430.62 298.056 432 300 432Z" fill="#EC803E"/>
</svg>
