<svg width="600" height="600" viewBox="0 0 600 600" fill="none" xmlns="http://www.w3.org/2000/svg">
<path d="M188.056 485C191.025 451.418 185.002 365.891 137.158 292.437C77.3535 200.619 167.697 185.316 188.056 200.619C208.415 215.922 175.332 53.965 302.575 140.682C307.666 140.682 410.733 53.9651 414.55 200.619C418.368 204.445 518.891 181.49 469.265 292.437C460.709 311.566 408.952 406.444 422.185 485" stroke="#EC803E" stroke-width="30" stroke-linecap="round"/>
<circle cx="188" cy="269" r="24" fill="#EC803E"/>
<circle cx="351" cy="189" r="24" fill="#EC803E"/>
<circle cx="262" cy="189" r="24" fill="#EC803E"/>
<circle cx="415" cy="269" r="24" fill="#EC803E"/>
<path d="M263 300C263 318.804 300 338 300 338C300 338 337 318.804 337 300" stroke="#EC803E" stroke-width="70" stroke-linecap="round"/>
</svg>
