<svg width="600" height="600" viewBox="0 0 600 600" fill="none" xmlns="http://www.w3.org/2000/svg">
<path d="M168.078 413V482.263C167.094 496.509 175.014 525 214.562 525C254.11 525 395.332 525 461 525" stroke="#EC803E" stroke-width="20" stroke-linecap="round"/>
<path d="M460.043 526.936C446 527.674 418.06 522.358 418.652 495.188V425.786C419.145 414.957 423.53 390.051 437.13 377.057C439.84 373.119 445.261 360.371 445.261 340.879V311.346V296.58L481.478 277.384C486.899 274.184 496.409 260.55 497 231.608H450.435C442.304 217.088 420.426 188.047 397.956 188.047H345.477C338.579 187.309 321.382 194.987 307.781 231.608C297.187 253.511 283.833 300.124 315.173 311.346M315.173 311.346C326.013 315.284 363.955 311.346 363.955 277.384V231.608M315.173 311.346C315.665 321.191 305.416 350.034 260.476 386.655C244.708 399.699 213.763 434.35 216.128 468.608C216.128 480.422 219.972 504.195 235.346 522.506" stroke="#EC803E" stroke-width="20" stroke-linecap="round"/>
<path d="M285 415.385C293.086 409.956 314.111 400.726 333.518 407.241C352.925 413.756 360.717 422.049 366.598 445C368.069 452.404 366.304 472.987 347.485 496.087L326.167 522" stroke="#EC803E" stroke-width="20" stroke-linecap="round"/>
<circle cx="406" cy="236" r="9" fill="#EC803E"/>
<path d="M145 70L364 144.235L145 217L164.209 144.235L145 70Z" fill="#EC803E"/>
<rect x="102" y="59" width="25" height="481" fill="#EC803E"/>
</svg>
