<svg width="600" height="600" viewBox="0 0 600 600" fill="none" xmlns="http://www.w3.org/2000/svg">
<path d="M39 423L560 423" stroke="#EC803E" stroke-width="30" stroke-linecap="round"/>
<rect x="249.9" y="320.79" width="81.4352" height="12.9556" transform="rotate(36.4037 249.9 320.79)" fill="#EC803E"/>
<ellipse cx="249.528" cy="320.516" rx="6.9405" ry="6.4778" transform="rotate(36.4037 249.528 320.516)" fill="#EC803E"/>
<ellipse cx="315.071" cy="368.845" rx="6.9405" ry="6.4778" transform="rotate(36.4037 315.071 368.845)" fill="#EC803E"/>
<ellipse cx="307.382" cy="379.272" rx="6.9405" ry="6.4778" transform="rotate(36.4037 307.382 379.272)" fill="#EC803E"/>
<ellipse cx="241.839" cy="330.943" rx="6.9405" ry="6.4778" transform="rotate(36.4037 241.839 330.943)" fill="#EC803E"/>
<rect width="81.4352" height="12.9556" transform="matrix(-0.804855 0.593472 0.593472 0.804855 344.952 320.79)" fill="#EC803E"/>
<ellipse cx="6.9405" cy="6.4778" rx="6.9405" ry="6.4778" transform="matrix(-0.804855 0.593472 0.593472 0.804855 347.066 311.183)" fill="#EC803E"/>
<ellipse cx="6.9405" cy="6.4778" rx="6.9405" ry="6.4778" transform="matrix(-0.804855 0.593472 0.593472 0.804855 281.522 359.512)" fill="#EC803E"/>
<ellipse cx="6.9405" cy="6.4778" rx="6.9405" ry="6.4778" transform="matrix(-0.804855 0.593472 0.593472 0.804855 289.211 369.94)" fill="#EC803E"/>
<ellipse cx="6.9405" cy="6.4778" rx="6.9405" ry="6.4778" transform="matrix(-0.804855 0.593472 0.593472 0.804855 354.754 321.61)" fill="#EC803E"/>
<path d="M70 415L105.732 335.401C134.019 284.23 122.109 283.092 187.617 284.229H431.783C473.47 284.229 463.845 279.43 498.419 340.36L536 415" stroke="#EC803E" stroke-width="30" stroke-linecap="round"/>
<circle cx="152.985" cy="267.887" r="17.2371" fill="#EC803E"/>
<circle cx="174.923" cy="256.918" r="21.9381" fill="#EC803E"/>
<circle cx="322.222" cy="256.918" r="21.9381" fill="#EC803E"/>
<circle cx="250.139" cy="245.948" r="21.9381" fill="#EC803E"/>
<circle cx="210.964" cy="241.247" r="21.9381" fill="#EC803E"/>
<circle cx="174.923" cy="234.979" r="21.9381" fill="#EC803E"/>
<circle cx="289.314" cy="245.948" r="21.9381" fill="#EC803E"/>
<circle cx="348.861" cy="241.247" r="21.9381" fill="#EC803E"/>
<circle cx="145.15" cy="263.186" r="21.9381" fill="#EC803E"/>
<circle cx="196.861" cy="256.918" r="21.9381" fill="#EC803E"/>
<circle cx="229.768" cy="263.186" r="21.9381" fill="#EC803E"/>
<circle cx="273.644" cy="263.186" r="21.9381" fill="#EC803E"/>
<circle cx="350.428" cy="263.186" r="21.9381" fill="#EC803E"/>
<circle cx="311.253" cy="272.588" r="21.9381" fill="#EC803E"/>
<circle cx="388.036" cy="256.918" r="21.9381" fill="#EC803E"/>
<circle cx="422.51" cy="267.887" r="21.9381" fill="#EC803E"/>
<circle cx="21.9381" cy="21.9381" r="21.9381" transform="matrix(-1 0 0 1 441.314 227.144)" fill="#EC803E"/>
<circle cx="21.9381" cy="21.9381" r="21.9381" transform="matrix(-1 0 0 1 294.015 227.144)" fill="#EC803E"/>
<circle cx="21.9381" cy="21.9381" r="21.9381" transform="matrix(-1 0 0 1 366.098 216.175)" fill="#EC803E"/>
<circle cx="21.9381" cy="21.9381" r="21.9381" transform="matrix(-1 0 0 1 405.273 211.474)" fill="#EC803E"/>
<circle cx="21.9381" cy="21.9381" r="21.9381" transform="matrix(-1 0 0 1 441.314 205.206)" fill="#EC803E"/>
<circle cx="21.9381" cy="21.9381" r="21.9381" transform="matrix(-1 0 0 1 326.923 216.175)" fill="#EC803E"/>
<circle cx="21.9381" cy="21.9381" r="21.9381" transform="matrix(-1 0 0 1 267.376 211.474)" fill="#EC803E"/>
<circle cx="21.9381" cy="21.9381" r="21.9381" transform="matrix(-1 0 0 1 471.088 233.412)" fill="#EC803E"/>
<circle cx="21.9381" cy="21.9381" r="21.9381" transform="matrix(-1 0 0 1 419.376 227.144)" fill="#EC803E"/>
<circle cx="21.9381" cy="21.9381" r="21.9381" transform="matrix(-1 0 0 1 386.469 233.412)" fill="#EC803E"/>
<circle cx="203.129" cy="216.175" r="21.9381" fill="#EC803E"/>
<circle cx="204.696" cy="238.113" r="21.9381" fill="#EC803E"/>
<circle cx="242.304" cy="231.845" r="21.9381" fill="#EC803E"/>
<circle cx="21.9381" cy="21.9381" r="21.9381" transform="matrix(-1 0 0 1 295.583 202.072)" fill="#EC803E"/>
<circle cx="21.9381" cy="21.9381" r="21.9381" transform="matrix(-1 0 0 1 220.366 191.103)" fill="#EC803E"/>
<circle cx="21.9381" cy="21.9381" r="21.9381" transform="matrix(-1 0 0 1 259.541 186.402)" fill="#EC803E"/>
<circle cx="21.9381" cy="21.9381" r="21.9381" transform="matrix(-1 0 0 1 295.583 180.134)" fill="#EC803E"/>
<circle cx="21.9381" cy="21.9381" r="21.9381" transform="matrix(-1 0 0 1 325.356 208.34)" fill="#EC803E"/>
<circle cx="21.9381" cy="21.9381" r="21.9381" transform="matrix(-1 0 0 1 273.645 202.072)" fill="#EC803E"/>
<circle cx="21.9381" cy="21.9381" r="21.9381" transform="matrix(-1 0 0 1 240.737 208.34)" fill="#EC803E"/>
<circle cx="21.9381" cy="21.9381" r="21.9381" transform="matrix(-1 0 0 1 403.706 191.103)" fill="#EC803E"/>
<circle cx="21.9381" cy="21.9381" r="21.9381" transform="matrix(-1 0 0 1 402.139 213.041)" fill="#EC803E"/>
<circle cx="21.9381" cy="21.9381" r="21.9381" transform="matrix(-1 0 0 1 364.531 206.773)" fill="#EC803E"/>
<circle cx="311.253" cy="220.876" r="21.9381" fill="#EC803E"/>
<circle cx="386.469" cy="209.907" r="21.9381" fill="#EC803E"/>
<circle cx="347.294" cy="205.206" r="21.9381" fill="#EC803E"/>
<circle cx="311.253" cy="198.938" r="21.9381" fill="#EC803E"/>
<circle cx="281.479" cy="227.144" r="21.9381" fill="#EC803E"/>
<circle cx="333.191" cy="220.876" r="21.9381" fill="#EC803E"/>
<circle cx="366.098" cy="227.144" r="21.9381" fill="#EC803E"/>
<circle cx="21.9381" cy="21.9381" r="21.9381" transform="matrix(-1 0 0 1 342.593 233.412)" fill="#EC803E"/>
<circle cx="21.9381" cy="21.9381" r="21.9381" transform="matrix(-1 0 0 1 265.809 233.412)" fill="#EC803E"/>
<circle cx="21.9381" cy="21.9381" r="21.9381" transform="matrix(-1 0 0 1 228.201 227.144)" fill="#EC803E"/>
<circle cx="21.9381" cy="21.9381" r="21.9381" transform="matrix(-1 0 0 1 193.727 238.113)" fill="#EC803E"/>
<circle cx="439.747" cy="272.588" r="21.9381" fill="#EC803E"/>
<rect x="148" y="254" width="280" height="30" fill="#EC803E"/>
</svg>
