<svg width="600" height="600" viewBox="0 0 600 600" fill="none" xmlns="http://www.w3.org/2000/svg">
<path d="M209 251V278C209 296.5 233.5 308 240.5 278" stroke="#EC803E" stroke-width="15" stroke-linecap="round"/>
<path d="M298 299L276.5 277.5L298 265C302.333 260.833 308.4 248.5 298 232.5L283 209C280.5 206 273.3 200.2 264.5 201H216C211.833 201 202.3 202.6 197.5 209L183 232.5C178.167 240.333 171.4 257.8 183 265L209 277.5" stroke="#EC803E" stroke-width="15" stroke-linecap="round"/>
<path d="M272 251V278C272 296.5 247.5 308 240.5 278" stroke="#EC803E" stroke-width="15" stroke-linecap="round"/>
<path d="M221 296V327" stroke="#EC803E" stroke-width="15" stroke-linecap="round"/>
<path d="M388 267.5V197C388 181 386.4 156.2 360 155C327 153.5 329 185.5 329.5 193" stroke="#EC803E" stroke-width="15" stroke-linecap="round"/>
<path d="M161 329.708C304 345.708 306 256.708 429 269.208" stroke="#EC803E" stroke-width="15" stroke-linecap="round"/>
<path d="M171 336L183.5 379.5C192 404.5 193.5 409 228 409H370.5C379.833 408 399.4 398.7 403 369.5L418.5 269" stroke="#EC803E" stroke-width="15" stroke-linecap="round"/>
<circle cx="225.5" cy="240.5" r="6.5" fill="#EC803E"/>
<path d="M256 265.5C256 269.09 248.837 281.5 240 281.5C231.163 281.5 224 269.09 224 265.5C224 261.91 231.163 259 240 259C248.837 259 256 261.91 256 265.5Z" fill="#EC803E"/>
<circle cx="254.5" cy="240.5" r="6.5" fill="#EC803E"/>
</svg>
