<svg width="600" height="600" viewBox="0 0 600 600" fill="none" xmlns="http://www.w3.org/2000/svg">
<path fill-rule="evenodd" clip-rule="evenodd" d="M409.358 90.09C393.515 89.4317 380.445 92.4061 370.047 98.6206C359.589 104.871 353.041 113.677 349.079 122.575C341.607 139.351 342.934 157.474 343.362 163.322L343.38 163.564C343.983 171.827 351.169 178.036 359.431 177.434C367.694 176.831 373.903 169.645 373.301 161.382C372.881 155.627 372.289 144.197 376.483 134.78C378.407 130.461 381.205 126.902 385.437 124.372C389.729 121.807 396.693 119.59 408.113 120.064C416.842 120.427 422.462 122.51 426.198 124.936C429.914 127.349 432.654 130.677 434.728 134.956C439.192 144.167 440 156.42 440 168.515V265.019C423.918 267.332 409.172 270.877 395.342 275.321C364.144 285.345 337.944 299.887 312.772 313.889L297.219 295.659L313.289 284.708C332.04 273.426 341.429 242.383 317.619 209.88L293.121 171.5L292.609 170.699L292.001 169.968C288.728 166.041 283.229 161.171 276.201 157.398C269.238 153.659 259.959 150.571 249.318 151.361H169.848C164.868 151.361 157.561 152.259 150.107 154.812C142.716 157.343 133.723 162.008 127.301 170.571L126.893 171.115L126.535 171.694L102.593 210.497L102.473 210.692L102.358 210.891C96.187 221.614 89.9448 234.435 88.7294 247.166C88.0927 253.835 88.776 261.003 91.9836 267.902C95.2265 274.877 100.551 280.501 107.448 284.782L108.133 285.207L108.859 285.556L146.339 303.575C148.939 314.073 154.938 323.364 163.104 329.533V365.885C139.352 367.835 112.268 367.507 80.7006 363.975C72.4677 363.054 65.0469 368.981 64.1257 377.214C63.2046 385.447 69.1319 392.868 77.3648 393.789C78.7036 393.939 80.0354 394.083 81.3603 394.222L101.768 465.241L101.867 465.586L101.983 465.926L102.243 466.692C105.546 476.408 108.566 485.293 112.033 492.573C115.726 500.328 120.469 507.496 127.908 512.995C135.283 518.446 143.96 521.261 153.774 522.817C163.463 524.353 175.282 524.808 189.662 524.808H424.956H425.757L426.554 524.722C448.236 522.399 486.528 502.219 493.478 446.654L517.08 293.619C518.06 293.711 519.044 293.808 520.034 293.908C528.276 294.746 535.636 288.744 536.473 280.502C537.311 272.26 531.309 264.9 523.067 264.062C503.843 262.108 486.261 261.597 470 262.275V168.515C470 156.443 469.486 137.884 461.723 121.87C457.684 113.537 451.584 105.651 442.536 99.7751C433.507 93.9122 422.44 90.6336 409.358 90.09ZM193.104 361.978C200.898 360.566 208.304 358.897 215.38 357.018C242.013 349.948 264.395 339.813 285.859 328.565L273.01 313.505C267.402 325.948 256.75 335.539 243.66 338.227C233.307 340.353 222.412 337.793 213.466 330.018C212.371 329.067 211.321 328.051 210.314 326.974C209.805 327.464 209.287 327.939 208.757 328.399C203.97 332.559 198.625 335.226 193.104 336.481V361.978ZM223.077 386.014C192.392 394.16 156.885 398.542 113.265 396.625L130.502 456.609C134.052 467.049 136.512 474.201 139.118 479.675C141.617 484.922 143.685 487.351 145.74 488.87C147.859 490.436 151.361 492.06 158.471 493.187C165.707 494.334 175.559 494.808 189.662 494.808H424.032C433.696 493.405 458.834 482.477 463.732 442.751L463.76 442.525L463.795 442.3L486.974 292.006C454.163 291.681 427.69 296.438 404.519 303.883C376.136 313.003 352.345 326.222 326.721 340.461L326.72 340.461L326.707 340.468C324.467 341.713 322.214 342.965 319.941 344.223C291.922 359.738 261.665 375.77 223.077 386.014ZM196.267 231.583C196.267 237.511 191.462 242.316 185.534 242.316C179.607 242.316 174.801 237.511 174.801 231.583C174.801 225.656 179.607 220.85 185.534 220.85C191.462 220.85 196.267 225.656 196.267 231.583ZM226.603 294.959C232.289 288.707 235.895 280.993 235.895 277.72C235.895 271.793 224.067 266.988 209.476 266.988C194.886 266.988 183.057 271.793 183.057 277.72C183.057 281.402 187.621 290.703 194.576 297.222C192.641 301.884 190.578 304.452 189.079 305.755C187.19 307.396 185.803 307.468 184.598 307.221C181.026 306.487 174.909 301.12 174.909 291.883V247.301C174.909 239.017 168.193 232.301 159.909 232.301C151.625 232.301 144.909 239.017 144.909 247.301V269.6L122.686 258.916C120.445 257.412 119.588 256.116 119.187 255.254C118.718 254.245 118.341 252.663 118.594 250.017C119.153 244.155 122.449 236.154 128.247 226.051L151.622 188.168C153.192 186.307 155.926 184.53 159.826 183.194C163.944 181.784 167.947 181.361 169.848 181.361H249.93H250.611L251.288 181.3C254.866 180.974 258.525 181.957 262.009 183.828C265.058 185.466 267.331 187.447 268.466 188.632L292.601 226.444L292.884 226.886L293.196 227.308C309.36 249.107 298.134 258.823 297.773 259.031L297.274 259.317L296.798 259.642L277.314 272.919V248.92C277.314 240.636 270.599 233.92 262.314 233.92C254.03 233.92 247.314 240.636 247.314 248.92V293.502C247.314 302.74 241.197 308.106 237.625 308.84C236.42 309.088 235.033 309.016 233.144 307.374C231.33 305.797 228.69 302.369 226.452 295.619C226.478 295.51 226.503 295.401 226.529 295.292C226.555 295.181 226.579 295.07 226.603 294.959ZM244.151 231.583C244.151 237.511 239.346 242.316 233.419 242.316C227.491 242.316 222.686 237.511 222.686 231.583C222.686 225.656 227.491 220.85 233.419 220.85C239.346 220.85 244.151 225.656 244.151 231.583Z" fill="#EC803E"/>
</svg>
